<?xml version="1.0" encoding="iso-8859-1"?>
<!-- Uploaded to: SVG Repo, www.svgrepo.com, Generator: SVG Repo Mixer Tools -->
<svg height="800px" width="800px" version="1.1" id="Layer_1" xmlns="http://www.w3.org/2000/svg" xmlns:xlink="http://www.w3.org/1999/xlink" 
	 viewBox="0 0 460 460" xml:space="preserve">
<g>
	<path style="fill:#71E2F0;" d="M230,0C102.975,0,0,102.975,0,230c0,115.423,85.022,210.988,195.855,227.483L459.9,223.144
		C456.274,99.29,354.732,0,230,0z"/>
	<path style="fill:#38C6D9;" d="M460,230c0-2.294-0.043-4.577-0.11-6.855L305.205,68.46L154.497,219.167l66.989,66.99
		L99.191,360.809l96.664,96.664C206.997,459.132,218.396,460,230,460C357.025,460,460,357.026,460,230z"/>
	<path style="fill:#366796;" d="M229.851,37.248c58.857,0,106.565,47.708,106.565,106.565s-47.708,106.565-106.565,106.565
		L192.46,143.813L229.851,37.248z"/>
	<path style="fill:#5488A8;" d="M229.851,37.248v213.13c-58.857,0-106.565-47.708-106.565-106.565S170.994,37.248,229.851,37.248z"
		/>
	<path style="fill:#121149;" d="M390.281,322.439c-18.468-21.571-41.193-39.373-66.879-52.06l-18.696,94.811l18.371,24.717
		C350.924,373.663,374.145,350.357,390.281,322.439z"/>
	<path style="fill:#C2FBFF;" d="M251.197,270.379l-30.694,33.513l6.757,111.074c0.913,0.013,1.824,0.035,2.74,0.035
		c23.012,0,45.038-4.209,65.36-11.889l18.694-37.921l-18.696-94.811h-44.161V270.379z"/>
	<path style="fill:#FFFFFF;" d="M229.851,303.891l-21.346-33.513h-43.864l-18.696,94.811l18.393,37.807
		c20.393,7.748,42.509,11.998,65.619,12.003L229.851,303.891z"/>
	<polygon style="fill:#FF0F27;" points="245.599,303.891 263.211,412.022 229.851,440 220.503,294.544 	"/>
	<polygon style="fill:#FF6161;" points="214.103,303.891 196.406,411.951 229.851,440 229.851,294.544 	"/>
	<polygon style="fill:#C2001B;" points="251.197,270.379 245.599,303.891 229.851,303.891 220.503,287.135 229.851,270.379 	"/>
	<polygon style="fill:#FF0F27;" points="208.505,270.379 214.103,303.891 229.851,303.891 229.851,270.379 	"/>
	<path style="fill:#366796;" d="M295.358,403.109c9.769-3.69,19.144-8.182,28.043-13.398V270.379h-28.043V403.109z"/>
	<path style="fill:#273B7A;" d="M69.598,322.233c16.02,27.8,39.062,51.039,66.7,67.305l18.697-24.349l-18.695-94.81
		C110.696,283.026,88.034,300.754,69.598,322.233z"/>
	<path style="fill:#5488A8;" d="M136.3,389.535c8.898,5.238,18.272,9.75,28.043,13.461V270.379H136.3V389.535z"/>
	<path style="fill:#121149;" d="M229.852,201.313c-19.66,0-37.761-9.918-48.417-26.531l16.834-10.799
		c6.961,10.852,18.768,17.33,31.583,17.33s24.622-6.479,31.583-17.332l16.834,10.798
		C267.612,191.394,249.513,201.313,229.852,201.313z"/>
</g>
</svg>